<?xml version="1.0" encoding="UTF-8" standalone="no"?>
<!DOCTYPE svg PUBLIC "-//W3C//DTD SVG 1.1//EN"
 "http://www.w3.org/Graphics/SVG/1.1/DTD/svg11.dtd">
<!-- Generated by graphviz version 2.43.0 (0)
 -->
<!-- Title: feedbackDelayLine Pages: 1 -->
<svg width="1936pt" height="932pt"
 viewBox="0.00 0.00 1936.00 932.00" xmlns="http://www.w3.org/2000/svg" xmlns:xlink="http://www.w3.org/1999/xlink">
<g id="graph0" class="graph" transform="scale(1 1) rotate(0) translate(4 928)">
<title>feedbackDelayLine</title>
<polygon fill="white" stroke="transparent" points="-4,4 -4,-928 1932,-928 1932,4 -4,4"/>
<!-- k_0 -->
<g id="node1" class="node">
<title>k_0</title>
<polygon fill="none" stroke="blue" points="451.5,-600 294.5,-600 294.5,-564 451.5,-564 451.5,-600"/>
<text text-anchor="middle" x="373" y="-578.2" font-family="Helvetica,sans-Serif" font-size="16.00">channelIndex:0.0</text>
</g>
<!-- u_11 -->
<g id="node14" class="node">
<title>u_11</title>
<polygon fill="none" stroke="blue" points="368,-414 368,-438 424,-438 424,-414 368,-414"/>
<text text-anchor="start" x="371" y="-422.2" font-family="Helvetica,sans-Serif" font-size="16.00">Select</text>
<polygon fill="none" stroke="blue" points="426,-414 426,-438 485,-438 485,-414 426,-414"/>
<text text-anchor="start" x="429" y="-422.2" font-family="Helvetica,sans-Serif" font-size="16.00">which:</text>
<polygon fill="none" stroke="blue" points="487,-414 487,-438 551,-438 551,-414 487,-414"/>
<text text-anchor="start" x="490" y="-422.2" font-family="Helvetica,sans-Serif" font-size="16.00">array:8</text>
<polygon fill="none" stroke="blue" points="553,-414 553,-438 575,-438 575,-414 553,-414"/>
<text text-anchor="start" x="556" y="-422.2" font-family="Helvetica,sans-Serif" font-size="16.00">:9</text>
<polygon fill="none" stroke="blue" points="577,-414 577,-438 610,-438 610,-414 577,-414"/>
<text text-anchor="start" x="580" y="-422.2" font-family="Helvetica,sans-Serif" font-size="16.00">:10</text>
<polygon fill="none" stroke="blue" points="577,-406 577,-412 610,-412 610,-406 577,-406"/>
</g>
<!-- k_0&#45;&gt;u_11 -->
<g id="edge10" class="edge">
<title>k_0&#45;&gt;u_11:i_0</title>
<path fill="none" stroke="blue" d="M391.2,-563.6C414.93,-538.97 453.61,-491.38 454.96,-441.67"/>
<polygon fill="blue" stroke="blue" points="454,-438.99 456,-439.01 455.97,-441.01 453.97,-440.99 454,-438.99"/>
<polyline fill="none" stroke="blue" points="454.97,-441 454.97,-441.5 "/>
</g>
<!-- u_14 -->
<g id="node17" class="node">
<title>u_14</title>
<polygon fill="none" stroke="blue" points="10,-494 10,-518 66,-518 66,-494 10,-494"/>
<text text-anchor="start" x="13" y="-502.2" font-family="Helvetica,sans-Serif" font-size="16.00">Select</text>
<polygon fill="none" stroke="blue" points="68,-494 68,-518 127,-518 127,-494 68,-494"/>
<text text-anchor="start" x="71" y="-502.2" font-family="Helvetica,sans-Serif" font-size="16.00">which:</text>
<polygon fill="none" stroke="blue" points="129,-494 129,-518 193,-518 193,-494 129,-494"/>
<text text-anchor="start" x="132" y="-502.2" font-family="Helvetica,sans-Serif" font-size="16.00">array:8</text>
<polygon fill="none" stroke="blue" points="195,-494 195,-518 217,-518 217,-494 195,-494"/>
<text text-anchor="start" x="198" y="-502.2" font-family="Helvetica,sans-Serif" font-size="16.00">:9</text>
<polygon fill="none" stroke="blue" points="219,-494 219,-518 252,-518 252,-494 219,-494"/>
<text text-anchor="start" x="222" y="-502.2" font-family="Helvetica,sans-Serif" font-size="16.00">:10</text>
<polygon fill="none" stroke="blue" points="219,-486 219,-492 252,-492 252,-486 219,-486"/>
</g>
<!-- k_0&#45;&gt;u_14 -->
<g id="edge14" class="edge">
<title>k_0&#45;&gt;u_14:i_0</title>
<path fill="none" stroke="blue" d="M294.28,-578.49C214.61,-573.8 102.4,-560.35 97.19,-521.82"/>
<polygon fill="blue" stroke="blue" points="96,-519.07 98,-518.93 98.13,-520.93 96.14,-521.06 96,-519.07"/>
<polyline fill="none" stroke="blue" points="97.13,-521 97.17,-521.49 "/>
</g>
<!-- u_30 -->
<g id="node33" class="node">
<title>u_30</title>
<polygon fill="none" stroke="blue" points="472,-334 472,-358 528,-358 528,-334 472,-334"/>
<text text-anchor="start" x="475" y="-342.2" font-family="Helvetica,sans-Serif" font-size="16.00">Select</text>
<polygon fill="none" stroke="blue" points="530,-334 530,-358 589,-358 589,-334 530,-334"/>
<text text-anchor="start" x="533" y="-342.2" font-family="Helvetica,sans-Serif" font-size="16.00">which:</text>
<polygon fill="none" stroke="blue" points="591,-334 591,-358 655,-358 655,-334 591,-334"/>
<text text-anchor="start" x="594" y="-342.2" font-family="Helvetica,sans-Serif" font-size="16.00">array:5</text>
<polygon fill="none" stroke="blue" points="657,-334 657,-358 679,-358 679,-334 657,-334"/>
<text text-anchor="start" x="660" y="-342.2" font-family="Helvetica,sans-Serif" font-size="16.00">:6</text>
<polygon fill="none" stroke="blue" points="681,-334 681,-358 703,-358 703,-334 681,-334"/>
<text text-anchor="start" x="684" y="-342.2" font-family="Helvetica,sans-Serif" font-size="16.00">:7</text>
<polygon fill="none" stroke="blue" points="681,-326 681,-332 703,-332 703,-326 681,-326"/>
</g>
<!-- k_0&#45;&gt;u_30 -->
<g id="edge45" class="edge">
<title>k_0&#45;&gt;u_30:i_0</title>
<path fill="none" stroke="blue" d="M446.23,-563.99C507.03,-545.58 589.69,-509.62 629,-444 639.05,-427.22 638.72,-416.97 629,-400 611.56,-369.57 561.82,-393.66 559.12,-361.82"/>
<polygon fill="blue" stroke="blue" points="558,-359.04 560,-358.96 560.08,-360.96 558.08,-361.04 558,-359.04"/>
<polyline fill="none" stroke="blue" points="559.08,-361 559.1,-361.5 "/>
</g>
<!-- k_1 -->
<g id="node2" class="node">
<title>k_1</title>
<polygon fill="none" stroke="blue" points="1453,-920 1321,-920 1321,-884 1453,-884 1453,-920"/>
<text text-anchor="middle" x="1387" y="-898.2" font-family="Helvetica,sans-Serif" font-size="16.00">delayTime:0.0</text>
</g>
<!-- u_6 -->
<g id="node9" class="node">
<title>u_6</title>
<polygon fill="none" stroke="blue" points="1359,-814 1359,-838 1374,-838 1374,-814 1359,-814"/>
<text text-anchor="start" x="1362" y="-822.2" font-family="Helvetica,sans-Serif" font-size="16.00">*</text>
<polygon fill="none" stroke="blue" points="1376,-814 1376,-838 1398,-838 1398,-814 1376,-814"/>
<text text-anchor="start" x="1379" y="-822.2" font-family="Helvetica,sans-Serif" font-size="16.00">a:</text>
<polygon fill="none" stroke="blue" points="1400,-814 1400,-838 1491,-838 1491,-814 1400,-814"/>
<text text-anchor="start" x="1403" y="-822.2" font-family="Helvetica,sans-Serif" font-size="16.00">b:48000.0</text>
<polygon fill="none" stroke="blue" points="1400,-806 1400,-812 1491,-812 1491,-806 1400,-806"/>
</g>
<!-- k_1&#45;&gt;u_6 -->
<g id="edge3" class="edge">
<title>k_1&#45;&gt;u_6:i_0</title>
<path fill="none" stroke="blue" d="M1387,-883.89C1387,-872.12 1387,-856.05 1387,-841.51"/>
<polygon fill="blue" stroke="blue" points="1386,-839 1388,-839 1388,-841 1386,-841 1386,-839"/>
<polyline fill="none" stroke="blue" points="1387,-841 1387,-841.5 "/>
</g>
<!-- k_2 -->
<g id="node3" class="node">
<title>k_2</title>
<polygon fill="none" stroke="blue" points="656,-600 470,-600 470,-564 656,-564 656,-600"/>
<text text-anchor="middle" x="563" y="-578.2" font-family="Helvetica,sans-Serif" font-size="16.00">feedbackAmount:0.0</text>
</g>
<!-- u_13 -->
<g id="node16" class="node">
<title>u_13</title>
<polygon fill="none" stroke="black" points="347,-254 347,-278 362,-278 362,-254 347,-254"/>
<text text-anchor="start" x="350" y="-262.2" font-family="Helvetica,sans-Serif" font-size="16.00">*</text>
<polygon fill="none" stroke="black" points="364,-254 364,-278 386,-278 386,-254 364,-254"/>
<text text-anchor="start" x="367" y="-262.2" font-family="Helvetica,sans-Serif" font-size="16.00">a:</text>
<polygon fill="none" stroke="black" points="388,-254 388,-278 410,-278 410,-254 388,-254"/>
<text text-anchor="start" x="391" y="-262.2" font-family="Helvetica,sans-Serif" font-size="16.00">b:</text>
<polygon fill="none" stroke="black" points="388,-246 388,-252 410,-252 410,-246 388,-246"/>
</g>
<!-- k_2&#45;&gt;u_13 -->
<g id="edge12" class="edge">
<title>k_2&#45;&gt;u_13:i_0</title>
<path fill="none" stroke="blue" d="M510.07,-563.96C458.47,-544.19 382.99,-506.11 349,-444 322.55,-395.65 333.63,-372.93 349,-320 354.73,-300.25 373.16,-300.5 374.87,-281.89"/>
<polygon fill="blue" stroke="blue" points="374,-278.96 376,-279.04 375.91,-281.04 373.91,-280.95 374,-278.96"/>
<polyline fill="none" stroke="blue" points="374.91,-281 374.89,-281.5 "/>
</g>
<!-- u_17 -->
<g id="node20" class="node">
<title>u_17</title>
<polygon fill="none" stroke="black" points="941,-494 941,-518 956,-518 956,-494 941,-494"/>
<text text-anchor="start" x="944" y="-502.2" font-family="Helvetica,sans-Serif" font-size="16.00">*</text>
<polygon fill="none" stroke="black" points="958,-494 958,-518 980,-518 980,-494 958,-494"/>
<text text-anchor="start" x="961" y="-502.2" font-family="Helvetica,sans-Serif" font-size="16.00">a:</text>
<polygon fill="none" stroke="black" points="982,-494 982,-518 1004,-518 1004,-494 982,-494"/>
<text text-anchor="start" x="985" y="-502.2" font-family="Helvetica,sans-Serif" font-size="16.00">b:</text>
<polygon fill="none" stroke="black" points="982,-486 982,-492 1004,-492 1004,-486 982,-486"/>
</g>
<!-- k_2&#45;&gt;u_17 -->
<g id="edge16" class="edge">
<title>k_2&#45;&gt;u_17:i_0</title>
<path fill="none" stroke="blue" d="M643.08,-563.97C650.48,-562.56 657.87,-561.21 665,-560 697.68,-554.44 954.39,-553.15 968.4,-521.72"/>
<polygon fill="blue" stroke="blue" points="968.02,-518.79 969.98,-519.21 969.55,-521.17 967.6,-520.74 968.02,-518.79"/>
<polyline fill="none" stroke="blue" points="968.57,-520.95 968.47,-521.44 "/>
</g>
<!-- u_19 -->
<g id="node22" class="node">
<title>u_19</title>
<polygon fill="none" stroke="black" points="840,-494 840,-518 855,-518 855,-494 840,-494"/>
<text text-anchor="start" x="843" y="-502.2" font-family="Helvetica,sans-Serif" font-size="16.00">*</text>
<polygon fill="none" stroke="black" points="857,-494 857,-518 879,-518 879,-494 857,-494"/>
<text text-anchor="start" x="860" y="-502.2" font-family="Helvetica,sans-Serif" font-size="16.00">a:</text>
<polygon fill="none" stroke="black" points="881,-494 881,-518 903,-518 903,-494 881,-494"/>
<text text-anchor="start" x="884" y="-502.2" font-family="Helvetica,sans-Serif" font-size="16.00">b:</text>
<polygon fill="none" stroke="black" points="881,-486 881,-492 903,-492 903,-486 881,-486"/>
</g>
<!-- k_2&#45;&gt;u_19 -->
<g id="edge18" class="edge">
<title>k_2&#45;&gt;u_19:i_0</title>
<path fill="none" stroke="blue" d="M645.66,-563.95C652.2,-562.61 658.71,-561.28 665,-560 709.21,-550.98 861.87,-564.48 867.82,-521.63"/>
<polygon fill="blue" stroke="blue" points="867,-518.93 869,-519.07 868.86,-521.06 866.87,-520.93 867,-518.93"/>
<polyline fill="none" stroke="blue" points="867.86,-521 867.83,-521.49 "/>
</g>
<!-- u_21 -->
<g id="node24" class="node">
<title>u_21</title>
<polygon fill="none" stroke="black" points="739,-494 739,-518 754,-518 754,-494 739,-494"/>
<text text-anchor="start" x="742" y="-502.2" font-family="Helvetica,sans-Serif" font-size="16.00">*</text>
<polygon fill="none" stroke="black" points="756,-494 756,-518 778,-518 778,-494 756,-494"/>
<text text-anchor="start" x="759" y="-502.2" font-family="Helvetica,sans-Serif" font-size="16.00">a:</text>
<polygon fill="none" stroke="black" points="780,-494 780,-518 802,-518 802,-494 780,-494"/>
<text text-anchor="start" x="783" y="-502.2" font-family="Helvetica,sans-Serif" font-size="16.00">b:</text>
<polygon fill="none" stroke="black" points="780,-486 780,-492 802,-492 802,-486 780,-486"/>
</g>
<!-- k_2&#45;&gt;u_21 -->
<g id="edge20" class="edge">
<title>k_2&#45;&gt;u_21:i_0</title>
<path fill="none" stroke="blue" d="M643.63,-563.98C697.08,-551.6 758.74,-534.77 766.24,-521.59"/>
<polygon fill="blue" stroke="blue" points="766.04,-518.72 767.96,-519.28 767.4,-521.2 765.48,-520.64 766.04,-518.72"/>
<polyline fill="none" stroke="blue" points="766.44,-520.92 766.3,-521.4 "/>
</g>
<!-- u_25 -->
<g id="node28" class="node">
<title>u_25</title>
<polygon fill="none" stroke="black" points="713,-174 713,-198 728,-198 728,-174 713,-174"/>
<text text-anchor="start" x="716" y="-182.2" font-family="Helvetica,sans-Serif" font-size="16.00">*</text>
<polygon fill="none" stroke="black" points="730,-174 730,-198 752,-198 752,-174 730,-174"/>
<text text-anchor="start" x="733" y="-182.2" font-family="Helvetica,sans-Serif" font-size="16.00">a:</text>
<polygon fill="none" stroke="black" points="754,-174 754,-198 776,-198 776,-174 754,-174"/>
<text text-anchor="start" x="757" y="-182.2" font-family="Helvetica,sans-Serif" font-size="16.00">b:</text>
<polygon fill="none" stroke="black" points="754,-166 754,-172 776,-172 776,-166 754,-166"/>
</g>
<!-- k_2&#45;&gt;u_25 -->
<g id="edge32" class="edge">
<title>k_2&#45;&gt;u_25:i_0</title>
<path fill="none" stroke="blue" d="M580.49,-563.78C614.22,-529.37 687.89,-448.13 721,-364 747.74,-296.07 741.16,-273.4 741,-201.58"/>
<polygon fill="blue" stroke="blue" points="740,-199 742,-199 742,-201 740,-201 740,-199"/>
<polyline fill="none" stroke="blue" points="741,-201 741,-201.5 "/>
</g>
<!-- u_27 -->
<g id="node30" class="node">
<title>u_27</title>
<polygon fill="none" stroke="black" points="446,-174 446,-198 461,-198 461,-174 446,-174"/>
<text text-anchor="start" x="449" y="-182.2" font-family="Helvetica,sans-Serif" font-size="16.00">*</text>
<polygon fill="none" stroke="black" points="463,-174 463,-198 485,-198 485,-174 463,-174"/>
<text text-anchor="start" x="466" y="-182.2" font-family="Helvetica,sans-Serif" font-size="16.00">a:</text>
<polygon fill="none" stroke="black" points="487,-174 487,-198 509,-198 509,-174 487,-174"/>
<text text-anchor="start" x="490" y="-182.2" font-family="Helvetica,sans-Serif" font-size="16.00">b:</text>
<polygon fill="none" stroke="black" points="487,-166 487,-172 509,-172 509,-166 487,-166"/>
</g>
<!-- k_2&#45;&gt;u_27 -->
<g id="edge36" class="edge">
<title>k_2&#45;&gt;u_27:i_0</title>
<path fill="none" stroke="blue" d="M489.78,-563.99C444.56,-552.57 391.55,-537.25 372,-524 324.59,-491.88 292,-480.26 292,-423 292,-423 292,-423 292,-341 292,-293.49 292.39,-272.54 327,-240 375.74,-194.17 471.34,-264.85 473.95,-201.7"/>
<polygon fill="blue" stroke="blue" points="473,-198.98 475,-199.02 474.96,-201.02 472.96,-200.98 473,-198.98"/>
<polyline fill="none" stroke="blue" points="473.96,-201 473.95,-201.5 "/>
</g>
<!-- u_1 -->
<g id="node4" class="node">
<title>u_1</title>
<polygon fill="none" stroke="black" points="1481,-894 1481,-918 1503,-918 1503,-894 1481,-894"/>
<text text-anchor="start" x="1484" y="-902.2" font-family="Helvetica,sans-Serif" font-size="16.00">In</text>
<polygon fill="none" stroke="black" points="1505,-894 1505,-918 1557,-918 1557,-894 1505,-894"/>
<text text-anchor="start" x="1508" y="-902.2" font-family="Helvetica,sans-Serif" font-size="16.00">bus:4</text>
<polygon fill="none" stroke="black" points="1505,-886 1505,-892 1557,-892 1557,-886 1505,-886"/>
</g>
<!-- u_2 -->
<g id="node5" class="node">
<title>u_2</title>
<polygon fill="none" stroke="black" points="943,-654 943,-678 1004,-678 1004,-654 943,-654"/>
<text text-anchor="start" x="946" y="-662.2" font-family="Helvetica,sans-Serif" font-size="16.00">Phasor</text>
<polygon fill="none" stroke="black" points="1006,-654 1006,-678 1056,-678 1056,-654 1006,-654"/>
<text text-anchor="start" x="1009" y="-662.2" font-family="Helvetica,sans-Serif" font-size="16.00">trig:0</text>
<polygon fill="none" stroke="black" points="1058,-654 1058,-678 1113,-678 1113,-654 1058,-654"/>
<text text-anchor="start" x="1061" y="-662.2" font-family="Helvetica,sans-Serif" font-size="16.00">rate:1</text>
<polygon fill="none" stroke="black" points="1115,-654 1115,-678 1174,-678 1174,-654 1115,-654"/>
<text text-anchor="start" x="1118" y="-662.2" font-family="Helvetica,sans-Serif" font-size="16.00">start:0</text>
<polygon fill="none" stroke="black" points="1176,-654 1176,-678 1287,-678 1287,-654 1176,-654"/>
<text text-anchor="start" x="1179" y="-662.2" font-family="Helvetica,sans-Serif" font-size="16.00">end:96064.0</text>
<polygon fill="none" stroke="black" points="1289,-654 1289,-678 1395,-678 1395,-654 1289,-654"/>
<text text-anchor="start" x="1292" y="-662.2" font-family="Helvetica,sans-Serif" font-size="16.00">resetPos:0.0</text>
<polygon fill="none" stroke="black" points="1289,-646 1289,-652 1395,-652 1395,-646 1289,-646"/>
</g>
<!-- u_9 -->
<g id="node12" class="node">
<title>u_9</title>
<polygon fill="none" stroke="black" points="1316,-574 1316,-598 1329,-598 1329,-574 1316,-574"/>
<text text-anchor="start" x="1319" y="-582.2" font-family="Helvetica,sans-Serif" font-size="16.00">&#45;</text>
<polygon fill="none" stroke="black" points="1331,-574 1331,-598 1353,-598 1353,-574 1331,-574"/>
<text text-anchor="start" x="1334" y="-582.2" font-family="Helvetica,sans-Serif" font-size="16.00">a:</text>
<polygon fill="none" stroke="black" points="1355,-574 1355,-598 1377,-598 1377,-574 1355,-574"/>
<text text-anchor="start" x="1358" y="-582.2" font-family="Helvetica,sans-Serif" font-size="16.00">b:</text>
<polygon fill="none" stroke="black" points="1355,-566 1355,-572 1377,-572 1377,-566 1355,-566"/>
</g>
<!-- u_2&#45;&gt;u_9 -->
<g id="edge6" class="edge">
<title>u_2:o_0&#45;&gt;u_9:i_0</title>
<path fill="none" stroke="black" d="M1342,-645C1342,-625.51 1342,-619.96 1342,-601.78"/>
<polygon fill="black" stroke="black" points="1341,-599 1343,-599 1343,-601 1341,-601 1341,-599"/>
<polyline fill="none" stroke="black" points="1342,-601 1342,-601.5 "/>
</g>
<!-- u_29 -->
<g id="node32" class="node">
<title>u_29</title>
<polygon fill="none" stroke="black" points="1268,-14 1268,-38 1324,-38 1324,-14 1268,-14"/>
<text text-anchor="start" x="1271" y="-22.2" font-family="Helvetica,sans-Serif" font-size="16.00">BufWr</text>
<polygon fill="none" stroke="black" points="1326,-14 1326,-38 1423,-38 1423,-14 1326,-14"/>
<text text-anchor="start" x="1329" y="-22.2" font-family="Helvetica,sans-Serif" font-size="16.00">inputArray:</text>
<polygon fill="none" stroke="black" points="1425,-14 1425,-38 1501,-38 1501,-14 1425,-14"/>
<text text-anchor="start" x="1428" y="-22.2" font-family="Helvetica,sans-Serif" font-size="16.00">bufnum:</text>
<polygon fill="none" stroke="black" points="1503,-14 1503,-38 1590,-38 1590,-14 1503,-14"/>
<text text-anchor="start" x="1506" y="-22.2" font-family="Helvetica,sans-Serif" font-size="16.00">phase:1.0</text>
<polygon fill="none" stroke="black" points="1592,-14 1592,-38 1638,-38 1638,-14 1592,-14"/>
<text text-anchor="start" x="1595" y="-22.2" font-family="Helvetica,sans-Serif" font-size="16.00">loop:</text>
<polygon fill="none" stroke="black" points="1592,-6 1592,-12 1638,-12 1638,-6 1592,-6"/>
</g>
<!-- u_2&#45;&gt;u_29 -->
<g id="edge43" class="edge">
<title>u_2:o_0&#45;&gt;u_29:i_1</title>
<path fill="none" stroke="black" d="M1396,-649C1413.85,-649 1463,-520.85 1463,-503 1463,-503 1463,-503 1463,-181 1463,-118.75 1463,-102.55 1463,-41.56"/>
<polygon fill="black" stroke="black" points="1462,-39 1464,-39 1464,-41 1462,-41 1462,-39"/>
<polyline fill="none" stroke="black" points="1463,-41 1463,-41.5 "/>
</g>
<!-- u_3 -->
<g id="node6" class="node">
<title>u_3</title>
<polygon fill="none" stroke="yellow" points="1768,-654 1768,-678 1886,-678 1886,-654 1768,-654"/>
<text text-anchor="start" x="1771" y="-662.2" font-family="Helvetica,sans-Serif" font-size="16.00">MaxLocalBufs</text>
<polygon fill="none" stroke="yellow" points="1888,-654 1888,-678 1910,-678 1910,-654 1888,-654"/>
<text text-anchor="start" x="1891" y="-662.2" font-family="Helvetica,sans-Serif" font-size="16.00">:1</text>
<polygon fill="none" stroke="yellow" points="1888,-646 1888,-652 1910,-652 1910,-646 1888,-646"/>
</g>
<!-- u_4 -->
<g id="node7" class="node">
<title>u_4</title>
<polygon fill="none" stroke="yellow" points="1502,-574 1502,-598 1578,-598 1578,-574 1502,-574"/>
<text text-anchor="start" x="1505" y="-582.2" font-family="Helvetica,sans-Serif" font-size="16.00">LocalBuf</text>
<polygon fill="none" stroke="yellow" points="1580,-574 1580,-598 1697,-598 1697,-574 1580,-574"/>
<text text-anchor="start" x="1583" y="-582.2" font-family="Helvetica,sans-Serif" font-size="16.00">numFrames:1</text>
<polygon fill="none" stroke="yellow" points="1699,-574 1699,-598 1891,-598 1891,-574 1699,-574"/>
<text text-anchor="start" x="1702" y="-582.2" font-family="Helvetica,sans-Serif" font-size="16.00">numChannels:96064.0</text>
<polygon fill="none" stroke="yellow" points="1893,-574 1893,-598 1905,-598 1905,-574 1893,-574"/>
<text text-anchor="start" x="1896" y="-582.2" font-family="Helvetica,sans-Serif" font-size="16.00">:</text>
<polygon fill="none" stroke="yellow" points="1893,-566 1893,-572 1905,-572 1905,-566 1893,-566"/>
</g>
<!-- u_3&#45;&gt;u_4 -->
<g id="edge1" class="edge">
<title>u_3:o_0&#45;&gt;u_4:i_2</title>
<path fill="none" stroke="yellow" d="M1899,-645C1899,-625.51 1899,-619.96 1899,-601.78"/>
<polygon fill="yellow" stroke="yellow" points="1898,-599 1900,-599 1900,-601 1898,-601 1898,-599"/>
<polyline fill="none" stroke="yellow" points="1899,-601 1899,-601.5 "/>
</g>
<!-- u_5 -->
<g id="node8" class="node">
<title>u_5</title>
<polygon fill="none" stroke="yellow" points="1802,-494 1802,-518 1878,-518 1878,-494 1802,-494"/>
<text text-anchor="start" x="1805" y="-502.2" font-family="Helvetica,sans-Serif" font-size="16.00">ClearBuf</text>
<polygon fill="none" stroke="yellow" points="1880,-494 1880,-518 1918,-518 1918,-494 1880,-494"/>
<text text-anchor="start" x="1883" y="-502.2" font-family="Helvetica,sans-Serif" font-size="16.00">buf:</text>
<polygon fill="none" stroke="yellow" points="1880,-486 1880,-492 1918,-492 1918,-486 1880,-486"/>
</g>
<!-- u_4&#45;&gt;u_5 -->
<g id="edge2" class="edge">
<title>u_4:o_0&#45;&gt;u_5:i_0</title>
<path fill="none" stroke="yellow" d="M1899,-565C1899,-545.51 1899,-539.96 1899,-521.78"/>
<polygon fill="yellow" stroke="yellow" points="1898,-519 1900,-519 1900,-521 1898,-521 1898,-519"/>
<polyline fill="none" stroke="yellow" points="1899,-521 1899,-521.5 "/>
</g>
<!-- u_10 -->
<g id="node13" class="node">
<title>u_10</title>
<polygon fill="none" stroke="black" points="1042,-494 1042,-518 1098,-518 1098,-494 1042,-494"/>
<text text-anchor="start" x="1045" y="-502.2" font-family="Helvetica,sans-Serif" font-size="16.00">BufRd</text>
<polygon fill="none" stroke="black" points="1100,-494 1100,-518 1176,-518 1176,-494 1100,-494"/>
<text text-anchor="start" x="1103" y="-502.2" font-family="Helvetica,sans-Serif" font-size="16.00">bufnum:</text>
<polygon fill="none" stroke="black" points="1178,-494 1178,-518 1239,-518 1239,-494 1178,-494"/>
<text text-anchor="start" x="1181" y="-502.2" font-family="Helvetica,sans-Serif" font-size="16.00">phase:</text>
<polygon fill="none" stroke="black" points="1241,-494 1241,-518 1298,-518 1298,-494 1241,-494"/>
<text text-anchor="start" x="1244" y="-502.2" font-family="Helvetica,sans-Serif" font-size="16.00">loop:1</text>
<polygon fill="none" stroke="black" points="1300,-494 1300,-518 1425,-518 1425,-494 1300,-494"/>
<text text-anchor="start" x="1303" y="-502.2" font-family="Helvetica,sans-Serif" font-size="16.00">interpolation:2</text>
<polygon fill="none" stroke="black" points="1300,-486 1300,-492 1425,-492 1425,-486 1300,-486"/>
</g>
<!-- u_4&#45;&gt;u_10 -->
<g id="edge8" class="edge">
<title>u_4:o_0&#45;&gt;u_10:i_0</title>
<path fill="none" stroke="yellow" d="M1899,-565C1899,-481.28 1155.73,-600.85 1138.31,-521.89"/>
<polygon fill="yellow" stroke="yellow" points="1137.01,-519.11 1138.99,-518.89 1139.21,-520.88 1137.22,-521.1 1137.01,-519.11"/>
<polyline fill="none" stroke="yellow" points="1138.21,-520.99 1138.27,-521.49 "/>
</g>
<!-- u_4&#45;&gt;u_29 -->
<g id="edge42" class="edge">
<title>u_4:o_0&#45;&gt;u_29:i_0</title>
<path fill="none" stroke="yellow" d="M1899,-565C1899,-510.32 1831.38,-549.49 1783,-524 1608.79,-432.23 1425,-459.91 1425,-263 1425,-263 1425,-263 1425,-181 1425,-114.86 1375.38,-106.28 1374.03,-41.72"/>
<polygon fill="yellow" stroke="yellow" points="1373,-39.01 1375,-38.99 1375.02,-40.99 1373.02,-41.01 1373,-39.01"/>
<polyline fill="none" stroke="yellow" points="1374.02,-41 1374.03,-41.5 "/>
</g>
<!-- u_7 -->
<g id="node10" class="node">
<title>u_7</title>
<polygon fill="none" stroke="blue" points="1393,-734 1393,-758 1433,-758 1433,-734 1393,-734"/>
<text text-anchor="start" x="1396" y="-742.2" font-family="Helvetica,sans-Serif" font-size="16.00">Max</text>
<polygon fill="none" stroke="blue" points="1435,-734 1435,-758 1457,-758 1457,-734 1435,-734"/>
<text text-anchor="start" x="1438" y="-742.2" font-family="Helvetica,sans-Serif" font-size="16.00">a:</text>
<polygon fill="none" stroke="blue" points="1459,-734 1459,-758 1502,-758 1502,-734 1459,-734"/>
<text text-anchor="start" x="1462" y="-742.2" font-family="Helvetica,sans-Serif" font-size="16.00">b:64</text>
<polygon fill="none" stroke="blue" points="1459,-726 1459,-732 1502,-732 1502,-726 1459,-726"/>
</g>
<!-- u_6&#45;&gt;u_7 -->
<g id="edge4" class="edge">
<title>u_6:o_0&#45;&gt;u_7:i_0</title>
<path fill="none" stroke="blue" d="M1446,-805C1446,-785.51 1446,-779.96 1446,-761.78"/>
<polygon fill="blue" stroke="blue" points="1445,-759 1447,-759 1447,-761 1445,-761 1445,-759"/>
<polyline fill="none" stroke="blue" points="1446,-761 1446,-761.5 "/>
</g>
<!-- u_8 -->
<g id="node11" class="node">
<title>u_8</title>
<polygon fill="none" stroke="blue" points="1433,-654 1433,-678 1468,-678 1468,-654 1433,-654"/>
<text text-anchor="start" x="1436" y="-662.2" font-family="Helvetica,sans-Serif" font-size="16.00">Min</text>
<polygon fill="none" stroke="blue" points="1470,-654 1470,-678 1492,-678 1492,-654 1470,-654"/>
<text text-anchor="start" x="1473" y="-662.2" font-family="Helvetica,sans-Serif" font-size="16.00">a:</text>
<polygon fill="none" stroke="blue" points="1494,-654 1494,-678 1585,-678 1585,-654 1494,-654"/>
<text text-anchor="start" x="1497" y="-662.2" font-family="Helvetica,sans-Serif" font-size="16.00">b:96000.0</text>
<polygon fill="none" stroke="blue" points="1494,-646 1494,-652 1585,-652 1585,-646 1494,-646"/>
</g>
<!-- u_7&#45;&gt;u_8 -->
<g id="edge5" class="edge">
<title>u_7:o_0&#45;&gt;u_8:i_0</title>
<path fill="none" stroke="blue" d="M1503,-729C1507.02,-729 1503.16,-723.85 1502,-720 1496.38,-701.31 1482.4,-699.6 1481.1,-681.75"/>
<polygon fill="blue" stroke="blue" points="1480,-679.04 1482,-678.96 1482.07,-680.96 1480.07,-681.03 1480,-679.04"/>
<polyline fill="none" stroke="blue" points="1481.07,-681 1481.09,-681.5 "/>
</g>
<!-- u_8&#45;&gt;u_9 -->
<g id="edge7" class="edge">
<title>u_8:o_0&#45;&gt;u_9:i_1</title>
<path fill="none" stroke="blue" d="M1540,-645C1540,-626.59 1408.1,-589.08 1380.8,-586.18"/>
<polygon fill="blue" stroke="blue" points="1377.94,-587 1378.06,-585 1380.06,-585.13 1379.93,-587.13 1377.94,-587"/>
<polyline fill="none" stroke="blue" points="1380,-586.13 1380.49,-586.16 "/>
</g>
<!-- u_9&#45;&gt;u_10 -->
<g id="edge9" class="edge">
<title>u_9:o_0&#45;&gt;u_10:i_1</title>
<path fill="none" stroke="black" d="M1366,-565C1366,-492.72 1211.68,-589.81 1208.06,-521.5"/>
<polygon fill="black" stroke="black" points="1207,-519.03 1209,-518.97 1209.05,-520.97 1207.05,-521.03 1207,-519.03"/>
<polyline fill="none" stroke="black" points="1208.05,-521 1208.06,-521.5 "/>
</g>
<!-- u_22 -->
<g id="node25" class="node">
<title>u_22</title>
<polygon fill="none" stroke="black" points="886,-414 886,-438 940,-438 940,-414 886,-414"/>
<text text-anchor="start" x="889" y="-422.2" font-family="Helvetica,sans-Serif" font-size="16.00">Sum4</text>
<polygon fill="none" stroke="black" points="942,-414 942,-438 954,-438 954,-414 942,-414"/>
<text text-anchor="start" x="945" y="-422.2" font-family="Helvetica,sans-Serif" font-size="16.00">:</text>
<polygon fill="none" stroke="black" points="956,-414 956,-438 968,-438 968,-414 956,-414"/>
<text text-anchor="start" x="959" y="-422.2" font-family="Helvetica,sans-Serif" font-size="16.00">:</text>
<polygon fill="none" stroke="black" points="970,-414 970,-438 982,-438 982,-414 970,-414"/>
<text text-anchor="start" x="973" y="-422.2" font-family="Helvetica,sans-Serif" font-size="16.00">:</text>
<polygon fill="none" stroke="black" points="984,-414 984,-438 996,-438 996,-414 984,-414"/>
<text text-anchor="start" x="987" y="-422.2" font-family="Helvetica,sans-Serif" font-size="16.00">:</text>
<polygon fill="none" stroke="black" points="984,-406 984,-412 996,-412 996,-406 984,-406"/>
</g>
<!-- u_10&#45;&gt;u_22 -->
<g id="edge25" class="edge">
<title>u_10:o_0&#45;&gt;u_22:i_3</title>
<path fill="none" stroke="black" d="M1363,-485C1363,-427.17 1163.09,-453.27 1106,-444 1058.39,-436.27 1046.51,-426.36 999.55,-426.01"/>
<polygon fill="black" stroke="black" points="997,-427 997,-425 999,-425.01 999,-427.01 997,-427"/>
<polyline fill="none" stroke="black" points="999,-426.01 999.5,-426.01 "/>
</g>
<!-- u_23 -->
<g id="node26" class="node">
<title>u_23</title>
<polygon fill="none" stroke="black" points="796,-334 796,-358 852,-358 852,-334 796,-334"/>
<text text-anchor="start" x="799" y="-342.2" font-family="Helvetica,sans-Serif" font-size="16.00">Select</text>
<polygon fill="none" stroke="black" points="854,-334 854,-358 913,-358 913,-334 854,-334"/>
<text text-anchor="start" x="857" y="-342.2" font-family="Helvetica,sans-Serif" font-size="16.00">which:</text>
<polygon fill="none" stroke="black" points="915,-334 915,-358 968,-358 968,-334 915,-334"/>
<text text-anchor="start" x="918" y="-342.2" font-family="Helvetica,sans-Serif" font-size="16.00">array:</text>
<polygon fill="none" stroke="black" points="970,-334 970,-358 982,-358 982,-334 970,-334"/>
<text text-anchor="start" x="973" y="-342.2" font-family="Helvetica,sans-Serif" font-size="16.00">:</text>
<polygon fill="none" stroke="black" points="984,-334 984,-358 996,-358 996,-334 984,-334"/>
<text text-anchor="start" x="987" y="-342.2" font-family="Helvetica,sans-Serif" font-size="16.00">:</text>
<polygon fill="none" stroke="black" points="984,-326 984,-332 996,-332 996,-326 984,-326"/>
</g>
<!-- u_10&#45;&gt;u_23 -->
<g id="edge27" class="edge">
<title>u_10:o_0&#45;&gt;u_23:i_1</title>
<path fill="none" stroke="black" d="M1363,-485C1363,-437.03 956.67,-408.83 942.39,-361.56"/>
<polygon fill="black" stroke="black" points="941.01,-359.15 942.99,-358.85 943.29,-360.83 941.31,-361.13 941.01,-359.15"/>
<polyline fill="none" stroke="black" points="942.3,-360.98 942.37,-361.47 "/>
</g>
<!-- u_10&#45;&gt;u_23 -->
<g id="edge28" class="edge">
<title>u_10:o_0&#45;&gt;u_23:i_2</title>
<path fill="none" stroke="black" d="M1363,-485C1363,-390.05 1257.41,-428.99 1167,-400 1126.63,-387.05 982.96,-401.69 976.24,-361.96"/>
<polygon fill="black" stroke="black" points="975,-359.08 977,-358.92 977.16,-360.91 975.17,-361.08 975,-359.08"/>
<polyline fill="none" stroke="black" points="976.16,-360.99 976.21,-361.49 "/>
</g>
<!-- u_12 -->
<g id="node15" class="node">
<title>u_12</title>
<polygon fill="none" stroke="black" points="369,-334 369,-358 391,-358 391,-334 369,-334"/>
<text text-anchor="start" x="372" y="-342.2" font-family="Helvetica,sans-Serif" font-size="16.00">In</text>
<polygon fill="none" stroke="black" points="393,-334 393,-358 434,-358 434,-334 393,-334"/>
<text text-anchor="start" x="396" y="-342.2" font-family="Helvetica,sans-Serif" font-size="16.00">bus:</text>
<polygon fill="none" stroke="black" points="393,-326 393,-332 434,-332 434,-326 393,-326"/>
</g>
<!-- u_11&#45;&gt;u_12 -->
<g id="edge11" class="edge">
<title>u_11:o_0&#45;&gt;u_12:i_0</title>
<path fill="none" stroke="blue" d="M594,-405C594,-339.31 508.09,-398.2 452,-364 443.49,-358.81 445.48,-348.24 437.74,-346.31"/>
<polygon fill="blue" stroke="blue" points="434.89,-346.99 435.11,-345.01 437.1,-345.23 436.88,-347.22 434.89,-346.99"/>
<polyline fill="none" stroke="blue" points="436.99,-346.22 437.48,-346.28 "/>
</g>
<!-- u_12&#45;&gt;u_13 -->
<g id="edge13" class="edge">
<title>u_12:o_0&#45;&gt;u_13:i_1</title>
<path fill="none" stroke="black" d="M414,-325C414,-304.5 400.37,-300.83 399.1,-281.91"/>
<polygon fill="black" stroke="black" points="398,-279.03 400,-278.97 400.07,-280.97 398.07,-281.03 398,-279.03"/>
<polyline fill="none" stroke="black" points="399.07,-281 399.08,-281.5 "/>
</g>
<!-- u_24 -->
<g id="node27" class="node">
<title>u_24</title>
<polygon fill="none" stroke="black" points="779,-254 779,-278 799,-278 799,-254 779,-254"/>
<text text-anchor="start" x="782" y="-262.2" font-family="Helvetica,sans-Serif" font-size="16.00">+</text>
<polygon fill="none" stroke="black" points="801,-254 801,-278 823,-278 823,-254 801,-254"/>
<text text-anchor="start" x="804" y="-262.2" font-family="Helvetica,sans-Serif" font-size="16.00">a:</text>
<polygon fill="none" stroke="black" points="825,-254 825,-278 847,-278 847,-254 825,-254"/>
<text text-anchor="start" x="828" y="-262.2" font-family="Helvetica,sans-Serif" font-size="16.00">b:</text>
<polygon fill="none" stroke="black" points="825,-246 825,-252 847,-252 847,-246 825,-246"/>
</g>
<!-- u_12&#45;&gt;u_24 -->
<g id="edge30" class="edge">
<title>u_12:o_0&#45;&gt;u_24:i_0</title>
<path fill="none" stroke="black" d="M435,-329C443.55,-329 443.83,-322.53 452,-320 489.56,-308.38 797.08,-318.75 811.48,-281.75"/>
<polygon fill="black" stroke="black" points="811.02,-278.81 812.98,-279.19 812.61,-281.15 810.64,-280.78 811.02,-278.81"/>
<polyline fill="none" stroke="black" points="811.63,-280.96 811.53,-281.46 "/>
</g>
<!-- u_26 -->
<g id="node29" class="node">
<title>u_26</title>
<polygon fill="none" stroke="black" points="448,-254 448,-278 468,-278 468,-254 448,-254"/>
<text text-anchor="start" x="451" y="-262.2" font-family="Helvetica,sans-Serif" font-size="16.00">+</text>
<polygon fill="none" stroke="black" points="470,-254 470,-278 492,-278 492,-254 470,-254"/>
<text text-anchor="start" x="473" y="-262.2" font-family="Helvetica,sans-Serif" font-size="16.00">a:</text>
<polygon fill="none" stroke="black" points="494,-254 494,-278 516,-278 516,-254 494,-254"/>
<text text-anchor="start" x="497" y="-262.2" font-family="Helvetica,sans-Serif" font-size="16.00">b:</text>
<polygon fill="none" stroke="black" points="494,-246 494,-252 516,-252 516,-246 494,-246"/>
</g>
<!-- u_12&#45;&gt;u_26 -->
<g id="edge34" class="edge">
<title>u_12:o_0&#45;&gt;u_26:i_0</title>
<path fill="none" stroke="black" d="M435,-329C441.9,-329 474.62,-293.53 480.19,-281.67"/>
<polygon fill="black" stroke="black" points="480.04,-278.71 481.96,-279.29 481.38,-281.2 479.46,-280.62 480.04,-278.71"/>
<polyline fill="none" stroke="black" points="480.42,-280.91 480.28,-281.39 "/>
</g>
<!-- u_28 -->
<g id="node31" class="node">
<title>u_28</title>
<polygon fill="none" stroke="black" points="304,-94 304,-118 360,-118 360,-94 304,-94"/>
<text text-anchor="start" x="307" y="-102.2" font-family="Helvetica,sans-Serif" font-size="16.00">Select</text>
<polygon fill="none" stroke="black" points="362,-94 362,-118 421,-118 421,-94 362,-94"/>
<text text-anchor="start" x="365" y="-102.2" font-family="Helvetica,sans-Serif" font-size="16.00">which:</text>
<polygon fill="none" stroke="black" points="423,-94 423,-118 476,-118 476,-94 423,-94"/>
<text text-anchor="start" x="426" y="-102.2" font-family="Helvetica,sans-Serif" font-size="16.00">array:</text>
<polygon fill="none" stroke="black" points="478,-94 478,-118 490,-118 490,-94 478,-94"/>
<text text-anchor="start" x="481" y="-102.2" font-family="Helvetica,sans-Serif" font-size="16.00">:</text>
<polygon fill="none" stroke="black" points="492,-94 492,-118 504,-118 504,-94 492,-94"/>
<text text-anchor="start" x="495" y="-102.2" font-family="Helvetica,sans-Serif" font-size="16.00">:</text>
<polygon fill="none" stroke="black" points="492,-86 492,-92 504,-92 504,-86 492,-86"/>
</g>
<!-- u_13&#45;&gt;u_28 -->
<g id="edge40" class="edge">
<title>u_13:o_0&#45;&gt;u_28:i_2</title>
<path fill="none" stroke="black" d="M399,-245C399,-205.36 402.6,-191.99 426,-160 444.05,-135.32 481.56,-149.61 483.89,-121.82"/>
<polygon fill="black" stroke="black" points="483,-118.96 485,-119.04 484.92,-121.04 482.92,-120.96 483,-118.96"/>
<polyline fill="none" stroke="black" points="483.92,-121 483.9,-121.5 "/>
</g>
<!-- u_15 -->
<g id="node18" class="node">
<title>u_15</title>
<polygon fill="none" stroke="blue" points="189,-414 189,-438 211,-438 211,-414 189,-414"/>
<text text-anchor="start" x="192" y="-422.2" font-family="Helvetica,sans-Serif" font-size="16.00">In</text>
<polygon fill="none" stroke="blue" points="213,-414 213,-438 254,-438 254,-414 213,-414"/>
<text text-anchor="start" x="216" y="-422.2" font-family="Helvetica,sans-Serif" font-size="16.00">bus:</text>
<polygon fill="none" stroke="blue" points="213,-406 213,-412 254,-412 254,-406 213,-406"/>
</g>
<!-- u_14&#45;&gt;u_15 -->
<g id="edge15" class="edge">
<title>u_14:o_0&#45;&gt;u_15:i_0</title>
<path fill="none" stroke="blue" d="M236,-485C236,-465.5 234.18,-459.97 234.01,-441.78"/>
<polygon fill="blue" stroke="blue" points="233,-439 235,-439 235.01,-441 233.01,-441 233,-439"/>
<polyline fill="none" stroke="blue" points="234.01,-441 234.01,-441.5 "/>
</g>
<!-- u_15&#45;&gt;u_23 -->
<g id="edge26" class="edge">
<title>u_15:o_0&#45;&gt;u_23:i_0</title>
<path fill="none" stroke="blue" d="M255,-409C296.97,-409 307.19,-403.61 349,-400 377.83,-397.51 855.77,-389.22 881.89,-361.39"/>
<polygon fill="blue" stroke="blue" points="882.09,-358.58 883.91,-359.42 883.06,-361.24 881.25,-360.39 882.09,-358.58"/>
<polyline fill="none" stroke="blue" points="882.16,-360.81 881.95,-361.27 "/>
</g>
<!-- u_15&#45;&gt;u_28 -->
<g id="edge38" class="edge">
<title>u_15:o_0&#45;&gt;u_28:i_0</title>
<path fill="none" stroke="blue" d="M234,-405C234,-329.1 241.22,-306.39 278,-240 313.24,-176.39 389.19,-192.2 390.97,-121.55"/>
<polygon fill="blue" stroke="blue" points="390,-118.99 392,-119.01 391.98,-121.01 389.98,-120.99 390,-118.99"/>
<polyline fill="none" stroke="blue" points="390.98,-121 390.97,-121.5 "/>
</g>
<!-- u_16 -->
<g id="node19" class="node">
<title>u_16</title>
<polygon fill="none" stroke="black" points="1077,-574 1077,-598 1176,-598 1176,-574 1077,-574"/>
<text text-anchor="start" x="1080" y="-582.2" font-family="Helvetica,sans-Serif" font-size="16.00">InFeedback</text>
<polygon fill="none" stroke="black" points="1178,-574 1178,-598 1230,-598 1230,-574 1178,-574"/>
<text text-anchor="start" x="1181" y="-582.2" font-family="Helvetica,sans-Serif" font-size="16.00">bus:8</text>
<polygon fill="none" stroke="black" points="1178,-566 1178,-572 1230,-572 1230,-566 1178,-566"/>
</g>
<!-- u_16&#45;&gt;u_17 -->
<g id="edge17" class="edge">
<title>u_16:o_0&#45;&gt;u_17:i_1</title>
<path fill="none" stroke="black" d="M1204,-565C1204,-482.08 1094.05,-565.04 1022,-524 1013.33,-519.06 1015.45,-508.29 1007.73,-506.31"/>
<polygon fill="black" stroke="black" points="1004.89,-506.99 1005.11,-505.01 1007.1,-505.24 1006.87,-507.22 1004.89,-506.99"/>
<polyline fill="none" stroke="black" points="1006.99,-506.23 1007.48,-506.29 "/>
</g>
<!-- u_17&#45;&gt;u_22 -->
<g id="edge24" class="edge">
<title>u_17:o_0&#45;&gt;u_22:i_2</title>
<path fill="none" stroke="black" d="M993,-485C993,-464.23 977.56,-461.06 976.11,-441.94"/>
<polygon fill="black" stroke="black" points="975,-439.04 977,-438.96 977.07,-440.96 975.07,-441.04 975,-439.04"/>
<polyline fill="none" stroke="black" points="976.07,-441 976.09,-441.5 "/>
</g>
<!-- u_18 -->
<g id="node21" class="node">
<title>u_18</title>
<polygon fill="none" stroke="black" points="886,-574 886,-598 985,-598 985,-574 886,-574"/>
<text text-anchor="start" x="889" y="-582.2" font-family="Helvetica,sans-Serif" font-size="16.00">InFeedback</text>
<polygon fill="none" stroke="black" points="987,-574 987,-598 1039,-598 1039,-574 987,-574"/>
<text text-anchor="start" x="990" y="-582.2" font-family="Helvetica,sans-Serif" font-size="16.00">bus:9</text>
<polygon fill="none" stroke="black" points="987,-566 987,-572 1039,-572 1039,-566 987,-566"/>
</g>
<!-- u_18&#45;&gt;u_19 -->
<g id="edge19" class="edge">
<title>u_18:o_0&#45;&gt;u_19:i_1</title>
<path fill="none" stroke="black" d="M1013,-565C1013,-508.37 895.75,-574.41 892.09,-521.61"/>
<polygon fill="black" stroke="black" points="891,-519.03 893,-518.97 893.07,-520.97 891.07,-521.03 891,-519.03"/>
<polyline fill="none" stroke="black" points="892.07,-521 892.08,-521.5 "/>
</g>
<!-- u_19&#45;&gt;u_22 -->
<g id="edge23" class="edge">
<title>u_19:o_0&#45;&gt;u_22:i_1</title>
<path fill="none" stroke="black" d="M904,-489C911.84,-489 954.52,-453.74 961.14,-441.56"/>
<polygon fill="black" stroke="black" points="961.05,-438.68 962.95,-439.32 962.31,-441.21 960.41,-440.58 961.05,-438.68"/>
<polyline fill="none" stroke="black" points="961.36,-440.9 961.2,-441.37 "/>
</g>
<!-- u_20 -->
<g id="node23" class="node">
<title>u_20</title>
<polygon fill="none" stroke="black" points="685,-574 685,-598 784,-598 784,-574 685,-574"/>
<text text-anchor="start" x="688" y="-582.2" font-family="Helvetica,sans-Serif" font-size="16.00">InFeedback</text>
<polygon fill="none" stroke="black" points="786,-574 786,-598 848,-598 848,-574 786,-574"/>
<text text-anchor="start" x="789" y="-582.2" font-family="Helvetica,sans-Serif" font-size="16.00">bus:10</text>
<polygon fill="none" stroke="black" points="786,-566 786,-572 848,-572 848,-566 786,-566"/>
</g>
<!-- u_20&#45;&gt;u_21 -->
<g id="edge21" class="edge">
<title>u_20:o_0&#45;&gt;u_21:i_1</title>
<path fill="none" stroke="black" d="M817,-565C817,-542.43 792.99,-542.45 791.12,-521.64"/>
<polygon fill="black" stroke="black" points="790,-519.04 792,-518.96 792.09,-520.95 790.09,-521.04 790,-519.04"/>
<polyline fill="none" stroke="black" points="791.09,-521 791.11,-521.5 "/>
</g>
<!-- u_21&#45;&gt;u_22 -->
<g id="edge22" class="edge">
<title>u_21:o_0&#45;&gt;u_22:i_0</title>
<path fill="none" stroke="black" d="M803,-489C811.55,-489 812.12,-483.32 820,-480 874.2,-457.19 945.72,-497.44 947.95,-441.73"/>
<polygon fill="black" stroke="black" points="947,-438.98 949,-439.02 948.96,-441.02 946.96,-440.98 947,-438.98"/>
<polyline fill="none" stroke="black" points="947.96,-441 947.95,-441.5 "/>
</g>
<!-- u_22&#45;&gt;u_23 -->
<g id="edge29" class="edge">
<title>u_22:o_0&#45;&gt;u_23:i_3</title>
<path fill="none" stroke="black" d="M990,-405C990,-385.51 990,-379.96 990,-361.78"/>
<polygon fill="black" stroke="black" points="989,-359 991,-359 991,-361 989,-361 989,-359"/>
<polyline fill="none" stroke="black" points="990,-361 990,-361.5 "/>
</g>
<!-- u_23&#45;&gt;u_24 -->
<g id="edge31" class="edge">
<title>u_23:o_0&#45;&gt;u_24:i_1</title>
<path fill="none" stroke="black" d="M990,-325C990,-254.54 840.18,-347.82 836.09,-281.84"/>
<polygon fill="black" stroke="black" points="835,-279.03 837,-278.97 837.06,-280.97 835.06,-281.03 835,-279.03"/>
<polyline fill="none" stroke="black" points="836.06,-281 836.08,-281.5 "/>
</g>
<!-- u_23&#45;&gt;u_26 -->
<g id="edge35" class="edge">
<title>u_23:o_0&#45;&gt;u_26:i_1</title>
<path fill="none" stroke="black" d="M990,-325C990,-299.14 564.17,-267.52 519.54,-266.05"/>
<polygon fill="black" stroke="black" points="516.98,-267 517.02,-265 519.02,-265.04 518.98,-267.04 516.98,-267"/>
<polyline fill="none" stroke="black" points="519,-266.04 519.5,-266.05 "/>
</g>
<!-- u_31 -->
<g id="node34" class="node">
<title>u_31</title>
<polygon fill="none" stroke="black" points="885,-250 885,-274 921,-274 921,-250 885,-250"/>
<text text-anchor="start" x="888" y="-258.2" font-family="Helvetica,sans-Serif" font-size="16.00">Out</text>
<polygon fill="none" stroke="black" points="923,-250 923,-274 964,-274 964,-250 923,-250"/>
<text text-anchor="start" x="926" y="-258.2" font-family="Helvetica,sans-Serif" font-size="16.00">bus:</text>
<polygon fill="none" stroke="black" points="966,-250 966,-274 1093,-274 1093,-250 966,-250"/>
<text text-anchor="start" x="969" y="-258.2" font-family="Helvetica,sans-Serif" font-size="16.00">channelsArray:</text>
</g>
<!-- u_23&#45;&gt;u_31 -->
<g id="edge47" class="edge">
<title>u_23:o_0&#45;&gt;u_31:i_1</title>
<path fill="none" stroke="black" d="M990,-325C990,-297.43 1027.54,-303.06 1029.89,-277.57"/>
<polygon fill="black" stroke="black" points="1029,-274.96 1031,-275.04 1030.91,-277.04 1028.91,-276.95 1029,-274.96"/>
<polyline fill="none" stroke="black" points="1029.91,-277 1029.89,-277.5 "/>
</g>
<!-- u_24&#45;&gt;u_25 -->
<g id="edge33" class="edge">
<title>u_24:o_0&#45;&gt;u_25:i_1</title>
<path fill="none" stroke="black" d="M836,-245C836,-208.28 768.29,-235.27 765.12,-201.54"/>
<polygon fill="black" stroke="black" points="764,-199.05 766,-198.95 766.09,-200.95 764.09,-201.04 764,-199.05"/>
<polyline fill="none" stroke="black" points="765.09,-201 765.11,-201.5 "/>
</g>
<!-- u_25&#45;&gt;u_28 -->
<g id="edge39" class="edge">
<title>u_25:o_0&#45;&gt;u_28:i_1</title>
<path fill="none" stroke="black" d="M765,-165C765,-95.22 458.55,-187.16 450.18,-121.81"/>
<polygon fill="black" stroke="black" points="449,-119.06 451,-118.94 451.12,-120.93 449.13,-121.06 449,-119.06"/>
<polyline fill="none" stroke="black" points="450.12,-121 450.16,-121.5 "/>
</g>
<!-- u_26&#45;&gt;u_27 -->
<g id="edge37" class="edge">
<title>u_26:o_0&#45;&gt;u_27:i_1</title>
<path fill="none" stroke="black" d="M505,-245C505,-225.29 498.64,-220.15 498.04,-201.81"/>
<polygon fill="black" stroke="black" points="497,-199.02 499,-198.98 499.03,-200.98 497.03,-201.02 497,-199.02"/>
<polyline fill="none" stroke="black" points="498.03,-201 498.04,-201.5 "/>
</g>
<!-- u_27&#45;&gt;u_28 -->
<g id="edge41" class="edge">
<title>u_27:o_0&#45;&gt;u_28:i_3</title>
<path fill="none" stroke="black" d="M498,-165C498,-145.51 498,-139.96 498,-121.78"/>
<polygon fill="black" stroke="black" points="497,-119 499,-119 499,-121 497,-121 497,-119"/>
<polyline fill="none" stroke="black" points="498,-121 498,-121.5 "/>
</g>
<!-- u_28&#45;&gt;u_29 -->
<g id="edge44" class="edge">
<title>u_28:o_0&#45;&gt;u_29:i_3</title>
<path fill="none" stroke="black" d="M505,-89C535.14,-89 1564.99,-70.75 1613.25,-41.15"/>
<polygon fill="black" stroke="black" points="1614.22,-38.37 1615.78,-39.63 1614.51,-41.18 1612.96,-39.92 1614.22,-38.37"/>
<polyline fill="none" stroke="black" points="1613.74,-40.55 1613.42,-40.94 "/>
</g>
<!-- u_30&#45;&gt;u_31 -->
<g id="edge46" class="edge">
<title>u_30:o_0&#45;&gt;u_31:i_0</title>
<path fill="none" stroke="blue" d="M704,-329C716.97,-329 922.34,-292.31 941.56,-277.08"/>
<polygon fill="blue" stroke="blue" points="942.18,-274.43 943.82,-275.57 942.69,-277.21 941.04,-276.08 942.18,-274.43"/>
<polyline fill="none" stroke="blue" points="941.86,-276.65 941.58,-277.06 "/>
</g>
</g>
</svg>
