<?xml version="1.0" encoding="UTF-8" standalone="no"?>
<!DOCTYPE svg PUBLIC "-//W3C//DTD SVG 1.1//EN"
 "http://www.w3.org/Graphics/SVG/1.1/DTD/svg11.dtd">
<!-- Generated by graphviz version 2.43.0 (0)
 -->
<!-- Title: pitchShifter Pages: 1 -->
<svg width="991pt" height="596pt"
 viewBox="0.00 0.00 990.70 596.00" xmlns="http://www.w3.org/2000/svg" xmlns:xlink="http://www.w3.org/1999/xlink">
<g id="graph0" class="graph" transform="scale(1 1) rotate(0) translate(4 592)">
<title>pitchShifter</title>
<polygon fill="white" stroke="transparent" points="-4,4 -4,-592 986.7,-592 986.7,4 -4,4"/>
<!-- k_0 -->
<g id="node1" class="node">
<title>k_0</title>
<polygon fill="none" stroke="blue" points="341.7,-588 184.7,-588 184.7,-552 341.7,-552 341.7,-588"/>
<text text-anchor="middle" x="263.2" y="-566.2" font-family="Helvetica,sans-Serif" font-size="16.00">channelIndex:0.0</text>
</g>
<!-- u_1 -->
<g id="node3" class="node">
<title>u_1</title>
<polygon fill="none" stroke="blue" points="592.2,-486 592.2,-510 648.2,-510 648.2,-486 592.2,-486"/>
<text text-anchor="start" x="595.2" y="-494.2" font-family="Helvetica,sans-Serif" font-size="16.00">Select</text>
<polygon fill="none" stroke="blue" points="650.2,-486 650.2,-510 709.2,-510 709.2,-486 650.2,-486"/>
<text text-anchor="start" x="653.2" y="-494.2" font-family="Helvetica,sans-Serif" font-size="16.00">which:</text>
<polygon fill="none" stroke="blue" points="711.2,-486 711.2,-510 775.2,-510 775.2,-486 711.2,-486"/>
<text text-anchor="start" x="714.2" y="-494.2" font-family="Helvetica,sans-Serif" font-size="16.00">array:5</text>
<polygon fill="none" stroke="blue" points="777.2,-486 777.2,-510 799.2,-510 799.2,-486 777.2,-486"/>
<text text-anchor="start" x="780.2" y="-494.2" font-family="Helvetica,sans-Serif" font-size="16.00">:6</text>
<polygon fill="none" stroke="blue" points="801.2,-486 801.2,-510 823.2,-510 823.2,-486 801.2,-486"/>
<text text-anchor="start" x="804.2" y="-494.2" font-family="Helvetica,sans-Serif" font-size="16.00">:7</text>
<polygon fill="none" stroke="blue" points="801.2,-478 801.2,-484 823.2,-484 823.2,-478 801.2,-478"/>
</g>
<!-- k_0&#45;&gt;u_1 -->
<g id="edge1" class="edge">
<title>k_0&#45;&gt;u_1:i_0</title>
<path fill="none" stroke="blue" d="M341.94,-565.85C459.24,-560.12 667.42,-545.51 678.72,-513.72"/>
<polygon fill="blue" stroke="blue" points="678.22,-510.83 680.19,-511.17 679.84,-513.14 677.87,-512.8 678.22,-510.83"/>
<polyline fill="none" stroke="blue" points="678.85,-512.97 678.77,-513.46 "/>
</g>
<!-- u_3 -->
<g id="node5" class="node">
<title>u_3</title>
<polygon fill="none" stroke="blue" points="311.2,-486 311.2,-510 367.2,-510 367.2,-486 311.2,-486"/>
<text text-anchor="start" x="314.2" y="-494.2" font-family="Helvetica,sans-Serif" font-size="16.00">Select</text>
<polygon fill="none" stroke="blue" points="369.2,-486 369.2,-510 428.2,-510 428.2,-486 369.2,-486"/>
<text text-anchor="start" x="372.2" y="-494.2" font-family="Helvetica,sans-Serif" font-size="16.00">which:</text>
<polygon fill="none" stroke="blue" points="430.2,-486 430.2,-510 494.2,-510 494.2,-486 430.2,-486"/>
<text text-anchor="start" x="433.2" y="-494.2" font-family="Helvetica,sans-Serif" font-size="16.00">array:8</text>
<polygon fill="none" stroke="blue" points="496.2,-486 496.2,-510 518.2,-510 518.2,-486 496.2,-486"/>
<text text-anchor="start" x="499.2" y="-494.2" font-family="Helvetica,sans-Serif" font-size="16.00">:9</text>
<polygon fill="none" stroke="blue" points="520.2,-486 520.2,-510 553.2,-510 553.2,-486 520.2,-486"/>
<text text-anchor="start" x="523.2" y="-494.2" font-family="Helvetica,sans-Serif" font-size="16.00">:10</text>
<polygon fill="none" stroke="blue" points="520.2,-478 520.2,-484 553.2,-484 553.2,-478 520.2,-478"/>
</g>
<!-- k_0&#45;&gt;u_3 -->
<g id="edge3" class="edge">
<title>k_0&#45;&gt;u_3:i_0</title>
<path fill="none" stroke="blue" d="M341.73,-562.1C370.5,-554.99 396.52,-540.99 398.12,-513.68"/>
<polygon fill="blue" stroke="blue" points="397.2,-510.97 399.2,-511.03 399.14,-513.03 397.14,-512.97 397.2,-510.97"/>
<polyline fill="none" stroke="blue" points="398.14,-513 398.13,-513.5 "/>
</g>
<!-- u_5 -->
<g id="node7" class="node">
<title>u_5</title>
<polygon fill="none" stroke="blue" points="42.2,-486 42.2,-510 98.2,-510 98.2,-486 42.2,-486"/>
<text text-anchor="start" x="45.2" y="-494.2" font-family="Helvetica,sans-Serif" font-size="16.00">Select</text>
<polygon fill="none" stroke="blue" points="100.2,-486 100.2,-510 159.2,-510 159.2,-486 100.2,-486"/>
<text text-anchor="start" x="103.2" y="-494.2" font-family="Helvetica,sans-Serif" font-size="16.00">which:</text>
<polygon fill="none" stroke="blue" points="161.2,-486 161.2,-510 225.2,-510 225.2,-486 161.2,-486"/>
<text text-anchor="start" x="164.2" y="-494.2" font-family="Helvetica,sans-Serif" font-size="16.00">array:2</text>
<polygon fill="none" stroke="blue" points="227.2,-486 227.2,-510 249.2,-510 249.2,-486 227.2,-486"/>
<text text-anchor="start" x="230.2" y="-494.2" font-family="Helvetica,sans-Serif" font-size="16.00">:3</text>
<polygon fill="none" stroke="blue" points="251.2,-486 251.2,-510 273.2,-510 273.2,-486 251.2,-486"/>
<text text-anchor="start" x="254.2" y="-494.2" font-family="Helvetica,sans-Serif" font-size="16.00">:4</text>
<polygon fill="none" stroke="blue" points="251.2,-478 251.2,-484 273.2,-484 273.2,-478 251.2,-478"/>
</g>
<!-- k_0&#45;&gt;u_5 -->
<g id="edge5" class="edge">
<title>k_0&#45;&gt;u_5:i_0</title>
<path fill="none" stroke="blue" d="M184.48,-561.74C156.22,-554.53 130.84,-540.55 129.28,-513.64"/>
<polygon fill="blue" stroke="blue" points="128.2,-511.03 130.2,-510.97 130.26,-512.97 128.26,-513.03 128.2,-511.03"/>
<polyline fill="none" stroke="blue" points="129.26,-513 129.27,-513.5 "/>
</g>
<!-- u_8 -->
<g id="node10" class="node">
<title>u_8</title>
<polygon fill="none" stroke="blue" points="208.2,-86 208.2,-110 264.2,-110 264.2,-86 208.2,-86"/>
<text text-anchor="start" x="211.2" y="-94.2" font-family="Helvetica,sans-Serif" font-size="16.00">Select</text>
<polygon fill="none" stroke="blue" points="266.2,-86 266.2,-110 325.2,-110 325.2,-86 266.2,-86"/>
<text text-anchor="start" x="269.2" y="-94.2" font-family="Helvetica,sans-Serif" font-size="16.00">which:</text>
<polygon fill="none" stroke="blue" points="327.2,-86 327.2,-110 391.2,-110 391.2,-86 327.2,-86"/>
<text text-anchor="start" x="330.2" y="-94.2" font-family="Helvetica,sans-Serif" font-size="16.00">array:8</text>
<polygon fill="none" stroke="blue" points="393.2,-86 393.2,-110 415.2,-110 415.2,-86 393.2,-86"/>
<text text-anchor="start" x="396.2" y="-94.2" font-family="Helvetica,sans-Serif" font-size="16.00">:9</text>
<polygon fill="none" stroke="blue" points="417.2,-86 417.2,-110 450.2,-110 450.2,-86 417.2,-86"/>
<text text-anchor="start" x="420.2" y="-94.2" font-family="Helvetica,sans-Serif" font-size="16.00">:10</text>
<polygon fill="none" stroke="blue" points="417.2,-78 417.2,-84 450.2,-84 450.2,-78 417.2,-78"/>
</g>
<!-- k_0&#45;&gt;u_8 -->
<g id="edge8" class="edge">
<title>k_0&#45;&gt;u_8:i_0</title>
<path fill="none" stroke="blue" d="M184.66,-561.09C123.2,-553.25 44.53,-539.03 22.2,-516 -9.6,-483.21 3.2,-460.68 3.2,-415 3.2,-415 3.2,-415 3.2,-253 3.2,-244.4 268.47,-131.39 293.34,-113"/>
<polygon fill="blue" stroke="blue" points="294.47,-110.32 295.93,-111.68 294.57,-113.15 293.11,-111.78 294.47,-110.32"/>
<polyline fill="none" stroke="blue" points="293.84,-112.46 293.5,-112.83 "/>
</g>
<!-- k_1 -->
<g id="node2" class="node">
<title>k_1</title>
<polygon fill="none" stroke="blue" points="982.7,-192 899.7,-192 899.7,-156 982.7,-156 982.7,-192"/>
<text text-anchor="middle" x="941.2" y="-170.2" font-family="Helvetica,sans-Serif" font-size="16.00">gain:0.0</text>
</g>
<!-- u_16 -->
<g id="node18" class="node">
<title>u_16</title>
<polygon fill="none" stroke="black" points="778.2,-86 778.2,-110 793.2,-110 793.2,-86 778.2,-86"/>
<text text-anchor="start" x="781.2" y="-94.2" font-family="Helvetica,sans-Serif" font-size="16.00">*</text>
<polygon fill="none" stroke="black" points="795.2,-86 795.2,-110 817.2,-110 817.2,-86 795.2,-86"/>
<text text-anchor="start" x="798.2" y="-94.2" font-family="Helvetica,sans-Serif" font-size="16.00">a:</text>
<polygon fill="none" stroke="black" points="819.2,-86 819.2,-110 841.2,-110 841.2,-86 819.2,-86"/>
<text text-anchor="start" x="822.2" y="-94.2" font-family="Helvetica,sans-Serif" font-size="16.00">b:</text>
<polygon fill="none" stroke="black" points="819.2,-78 819.2,-84 841.2,-84 841.2,-78 819.2,-78"/>
</g>
<!-- k_1&#45;&gt;u_16 -->
<g id="edge21" class="edge">
<title>k_1&#45;&gt;u_16:i_1</title>
<path fill="none" stroke="blue" d="M929.64,-155.98C913.47,-134.37 881.89,-99.67 844.87,-98.06"/>
<polygon fill="blue" stroke="blue" points="842.18,-99 842.22,-97 844.22,-97.04 844.18,-99.04 842.18,-99"/>
<polyline fill="none" stroke="blue" points="844.2,-98.04 844.7,-98.05 "/>
</g>
<!-- u_2 -->
<g id="node4" class="node">
<title>u_2</title>
<polygon fill="none" stroke="black" points="686.2,-406 686.2,-430 785.2,-430 785.2,-406 686.2,-406"/>
<text text-anchor="start" x="689.2" y="-414.2" font-family="Helvetica,sans-Serif" font-size="16.00">InFeedback</text>
<polygon fill="none" stroke="black" points="787.2,-406 787.2,-430 828.2,-430 828.2,-406 787.2,-406"/>
<text text-anchor="start" x="790.2" y="-414.2" font-family="Helvetica,sans-Serif" font-size="16.00">bus:</text>
<polygon fill="none" stroke="black" points="787.2,-398 787.2,-404 828.2,-404 828.2,-398 787.2,-398"/>
</g>
<!-- u_1&#45;&gt;u_2 -->
<g id="edge2" class="edge">
<title>u_1:o_0&#45;&gt;u_2:i_0</title>
<path fill="none" stroke="blue" d="M812.2,-477C812.2,-457.44 808.57,-452.02 808.23,-433.79"/>
<polygon fill="blue" stroke="blue" points="807.2,-431.01 809.2,-430.99 809.22,-432.99 807.22,-433.01 807.2,-431.01"/>
<polyline fill="none" stroke="blue" points="808.22,-433 808.22,-433.5 "/>
</g>
<!-- u_10 -->
<g id="node12" class="node">
<title>u_10</title>
<polygon fill="none" stroke="black" points="565.2,-326 565.2,-350 585.2,-350 585.2,-326 565.2,-326"/>
<text text-anchor="start" x="568.2" y="-334.2" font-family="Helvetica,sans-Serif" font-size="16.00">+</text>
<polygon fill="none" stroke="black" points="587.2,-326 587.2,-350 609.2,-350 609.2,-326 587.2,-326"/>
<text text-anchor="start" x="590.2" y="-334.2" font-family="Helvetica,sans-Serif" font-size="16.00">a:</text>
<polygon fill="none" stroke="black" points="611.2,-326 611.2,-350 633.2,-350 633.2,-326 611.2,-326"/>
<text text-anchor="start" x="614.2" y="-334.2" font-family="Helvetica,sans-Serif" font-size="16.00">b:</text>
<polygon fill="none" stroke="black" points="611.2,-318 611.2,-324 633.2,-324 633.2,-318 611.2,-318"/>
</g>
<!-- u_2&#45;&gt;u_10 -->
<g id="edge10" class="edge">
<title>u_2:o_0&#45;&gt;u_10:i_1</title>
<path fill="none" stroke="black" d="M808.2,-397C808.2,-357.05 680.69,-338.79 636.96,-338.03"/>
<polygon fill="black" stroke="black" points="634.19,-339 634.21,-337 636.21,-337.02 636.19,-339.02 634.19,-339"/>
<polyline fill="none" stroke="black" points="636.2,-338.02 636.7,-338.02 "/>
</g>
<!-- u_4 -->
<g id="node6" class="node">
<title>u_4</title>
<polygon fill="none" stroke="blue" points="423.2,-326 423.2,-350 445.2,-350 445.2,-326 423.2,-326"/>
<text text-anchor="start" x="426.2" y="-334.2" font-family="Helvetica,sans-Serif" font-size="16.00">In</text>
<polygon fill="none" stroke="blue" points="447.2,-326 447.2,-350 488.2,-350 488.2,-326 447.2,-326"/>
<text text-anchor="start" x="450.2" y="-334.2" font-family="Helvetica,sans-Serif" font-size="16.00">bus:</text>
<polygon fill="none" stroke="blue" points="447.2,-318 447.2,-324 488.2,-324 488.2,-318 447.2,-318"/>
</g>
<!-- u_3&#45;&gt;u_4 -->
<g id="edge4" class="edge">
<title>u_3:o_0&#45;&gt;u_4:i_0</title>
<path fill="none" stroke="blue" d="M537.2,-477C537.2,-414.03 470.07,-414.81 468.24,-353.58"/>
<polygon fill="blue" stroke="blue" points="467.2,-351.01 469.2,-350.99 469.23,-352.98 467.23,-353.01 467.2,-351.01"/>
<polyline fill="none" stroke="blue" points="468.23,-353 468.24,-353.5 "/>
</g>
<!-- u_11 -->
<g id="node13" class="node">
<title>u_11</title>
<polygon fill="none" stroke="black" points="381.2,-246 381.2,-270 437.2,-270 437.2,-246 381.2,-246"/>
<text text-anchor="start" x="384.2" y="-254.2" font-family="Helvetica,sans-Serif" font-size="16.00">Select</text>
<polygon fill="none" stroke="black" points="439.2,-246 439.2,-270 498.2,-270 498.2,-246 439.2,-246"/>
<text text-anchor="start" x="442.2" y="-254.2" font-family="Helvetica,sans-Serif" font-size="16.00">which:</text>
<polygon fill="none" stroke="black" points="500.2,-246 500.2,-270 553.2,-270 553.2,-246 500.2,-246"/>
<text text-anchor="start" x="503.2" y="-254.2" font-family="Helvetica,sans-Serif" font-size="16.00">array:</text>
<polygon fill="none" stroke="black" points="555.2,-246 555.2,-270 567.2,-270 567.2,-246 555.2,-246"/>
<text text-anchor="start" x="558.2" y="-254.2" font-family="Helvetica,sans-Serif" font-size="16.00">:</text>
<polygon fill="none" stroke="black" points="569.2,-246 569.2,-270 581.2,-270 581.2,-246 569.2,-246"/>
<text text-anchor="start" x="572.2" y="-254.2" font-family="Helvetica,sans-Serif" font-size="16.00">:</text>
<polygon fill="none" stroke="black" points="569.2,-238 569.2,-244 581.2,-244 581.2,-238 569.2,-238"/>
</g>
<!-- u_4&#45;&gt;u_11 -->
<g id="edge11" class="edge">
<title>u_4:o_0&#45;&gt;u_11:i_0</title>
<path fill="none" stroke="blue" d="M468.2,-317C468.2,-297.51 468.2,-291.96 468.2,-273.78"/>
<polygon fill="blue" stroke="blue" points="467.2,-271 469.2,-271 469.2,-273 467.2,-273 467.2,-271"/>
<polyline fill="none" stroke="blue" points="468.2,-273 468.2,-273.5 "/>
</g>
<!-- u_6 -->
<g id="node8" class="node">
<title>u_6</title>
<polygon fill="none" stroke="blue" points="266.2,-406 266.2,-430 288.2,-430 288.2,-406 266.2,-406"/>
<text text-anchor="start" x="269.2" y="-414.2" font-family="Helvetica,sans-Serif" font-size="16.00">In</text>
<polygon fill="none" stroke="blue" points="290.2,-406 290.2,-430 331.2,-430 331.2,-406 290.2,-406"/>
<text text-anchor="start" x="293.2" y="-414.2" font-family="Helvetica,sans-Serif" font-size="16.00">bus:</text>
<polygon fill="none" stroke="blue" points="290.2,-398 290.2,-404 331.2,-404 331.2,-398 290.2,-398"/>
</g>
<!-- u_5&#45;&gt;u_6 -->
<g id="edge6" class="edge">
<title>u_5:o_0&#45;&gt;u_6:i_0</title>
<path fill="none" stroke="blue" d="M274.2,-481C287.16,-481 308.34,-449.2 310.94,-433.84"/>
<polygon fill="blue" stroke="blue" points="310.2,-430.91 312.2,-431.09 312.01,-433.08 310.02,-432.9 310.2,-430.91"/>
<polyline fill="none" stroke="blue" points="311.02,-432.99 310.97,-433.49 "/>
</g>
<!-- u_7 -->
<g id="node9" class="node">
<title>u_7</title>
<polygon fill="none" stroke="blue" points="108.2,-246 108.2,-270 131.2,-270 131.2,-246 108.2,-246"/>
<text text-anchor="start" x="111.2" y="-254.2" font-family="Helvetica,sans-Serif" font-size="16.00">**</text>
<polygon fill="none" stroke="blue" points="133.2,-246 133.2,-270 307.2,-270 307.2,-246 133.2,-246"/>
<text text-anchor="start" x="136.2" y="-254.2" font-family="Helvetica,sans-Serif" font-size="16.00">a:1.0594630943593</text>
<polygon fill="none" stroke="blue" points="309.2,-246 309.2,-270 331.2,-270 331.2,-246 309.2,-246"/>
<text text-anchor="start" x="312.2" y="-254.2" font-family="Helvetica,sans-Serif" font-size="16.00">b:</text>
<polygon fill="none" stroke="blue" points="309.2,-238 309.2,-244 331.2,-244 331.2,-238 309.2,-238"/>
</g>
<!-- u_6&#45;&gt;u_7 -->
<g id="edge7" class="edge">
<title>u_6:o_0&#45;&gt;u_7:i_1</title>
<path fill="none" stroke="blue" d="M311.2,-397C311.2,-341.73 319.92,-327.58 320.19,-273.6"/>
<polygon fill="blue" stroke="blue" points="319.2,-271 321.2,-271 321.2,-273 319.2,-273 319.2,-271"/>
<polyline fill="none" stroke="blue" points="320.2,-273 320.19,-273.5 "/>
</g>
<!-- u_15 -->
<g id="node17" class="node">
<title>u_15</title>
<polygon fill="none" stroke="black" points="235.2,-166 235.2,-190 318.2,-190 318.2,-166 235.2,-166"/>
<text text-anchor="start" x="238.2" y="-174.2" font-family="Helvetica,sans-Serif" font-size="16.00">PitchShift</text>
<polygon fill="none" stroke="black" points="320.2,-166 320.2,-190 347.2,-190 347.2,-166 320.2,-166"/>
<text text-anchor="start" x="323.2" y="-174.2" font-family="Helvetica,sans-Serif" font-size="16.00">in:</text>
<polygon fill="none" stroke="black" points="349.2,-166 349.2,-190 502.2,-190 502.2,-166 349.2,-166"/>
<text text-anchor="start" x="352.2" y="-174.2" font-family="Helvetica,sans-Serif" font-size="16.00">windowSize:0.075</text>
<polygon fill="none" stroke="black" points="504.2,-166 504.2,-190 598.2,-190 598.2,-166 504.2,-166"/>
<text text-anchor="start" x="507.2" y="-174.2" font-family="Helvetica,sans-Serif" font-size="16.00">pitchRatio:</text>
<polygon fill="none" stroke="black" points="600.2,-166 600.2,-190 737.2,-190 737.2,-166 600.2,-166"/>
<text text-anchor="start" x="603.2" y="-174.2" font-family="Helvetica,sans-Serif" font-size="16.00">pitchDispersion:</text>
<polygon fill="none" stroke="black" points="739.2,-166 739.2,-190 872.2,-190 872.2,-166 739.2,-166"/>
<text text-anchor="start" x="742.2" y="-174.2" font-family="Helvetica,sans-Serif" font-size="16.00">timeDispersion:</text>
<polygon fill="none" stroke="black" points="739.2,-158 739.2,-164 872.2,-164 872.2,-158 739.2,-158"/>
</g>
<!-- u_7&#45;&gt;u_15 -->
<g id="edge17" class="edge">
<title>u_7:o_0&#45;&gt;u_15:i_2</title>
<path fill="none" stroke="blue" d="M332.2,-241C346.12,-241 348.72,-235.48 362.2,-232 402.84,-221.51 544.35,-233.39 550.96,-193.93"/>
<polygon fill="blue" stroke="blue" points="550.2,-190.92 552.2,-191.08 552.03,-193.07 550.04,-192.91 550.2,-190.92"/>
<polyline fill="none" stroke="blue" points="551.04,-192.99 551,-193.49 "/>
</g>
<!-- u_17 -->
<g id="node19" class="node">
<title>u_17</title>
<polygon fill="none" stroke="black" points="386.2,-6 386.2,-30 422.2,-30 422.2,-6 386.2,-6"/>
<text text-anchor="start" x="389.2" y="-14.2" font-family="Helvetica,sans-Serif" font-size="16.00">Out</text>
<polygon fill="none" stroke="black" points="424.2,-6 424.2,-30 465.2,-30 465.2,-6 424.2,-6"/>
<text text-anchor="start" x="427.2" y="-14.2" font-family="Helvetica,sans-Serif" font-size="16.00">bus:</text>
<polygon fill="none" stroke="black" points="467.2,-6 467.2,-30 594.2,-30 594.2,-6 467.2,-6"/>
<text text-anchor="start" x="470.2" y="-14.2" font-family="Helvetica,sans-Serif" font-size="16.00">channelsArray:</text>
</g>
<!-- u_8&#45;&gt;u_17 -->
<g id="edge22" class="edge">
<title>u_8:o_0&#45;&gt;u_17:i_0</title>
<path fill="none" stroke="blue" d="M451.2,-81C472.76,-81 446.42,-55.55 444.33,-33.65"/>
<polygon fill="blue" stroke="blue" points="443.2,-31.05 445.2,-30.95 445.3,-32.95 443.3,-33.05 443.2,-31.05"/>
<polyline fill="none" stroke="blue" points="444.3,-33 444.32,-33.5 "/>
</g>
<!-- u_9 -->
<g id="node11" class="node">
<title>u_9</title>
<polygon fill="none" stroke="black" points="548.2,-406 548.2,-430 570.2,-430 570.2,-406 548.2,-406"/>
<text text-anchor="start" x="551.2" y="-414.2" font-family="Helvetica,sans-Serif" font-size="16.00">In</text>
<polygon fill="none" stroke="black" points="572.2,-406 572.2,-430 624.2,-430 624.2,-406 572.2,-406"/>
<text text-anchor="start" x="575.2" y="-414.2" font-family="Helvetica,sans-Serif" font-size="16.00">bus:4</text>
<polygon fill="none" stroke="black" points="572.2,-398 572.2,-404 624.2,-404 624.2,-398 572.2,-398"/>
</g>
<!-- u_9&#45;&gt;u_10 -->
<g id="edge9" class="edge">
<title>u_9:o_0&#45;&gt;u_10:i_0</title>
<path fill="none" stroke="black" d="M598.2,-397C598.2,-377.51 598.2,-371.96 598.2,-353.78"/>
<polygon fill="black" stroke="black" points="597.2,-351 599.2,-351 599.2,-353 597.2,-353 597.2,-351"/>
<polyline fill="none" stroke="black" points="598.2,-353 598.2,-353.5 "/>
</g>
<!-- u_9&#45;&gt;u_11 -->
<g id="edge12" class="edge">
<title>u_9:o_0&#45;&gt;u_11:i_1</title>
<path fill="none" stroke="black" d="M598.2,-397C598.2,-367.57 561.87,-380.91 546.2,-356 526.07,-324 527.14,-310.35 527.2,-273.68"/>
<polygon fill="black" stroke="black" points="526.2,-271 528.2,-271 528.2,-273 526.2,-273 526.2,-271"/>
<polyline fill="none" stroke="black" points="527.2,-273 527.2,-273.5 "/>
</g>
<!-- u_9&#45;&gt;u_11 -->
<g id="edge14" class="edge">
<title>u_9:o_0&#45;&gt;u_11:i_3</title>
<path fill="none" stroke="black" d="M625.2,-401C666.54,-401 673.48,-347.44 652.2,-312 632.71,-279.54 577.85,-308.35 575.29,-273.61"/>
<polygon fill="black" stroke="black" points="574.2,-271.04 576.2,-270.96 576.27,-272.96 574.27,-273.03 574.2,-271.04"/>
<polyline fill="none" stroke="black" points="575.27,-273 575.29,-273.5 "/>
</g>
<!-- u_10&#45;&gt;u_11 -->
<g id="edge13" class="edge">
<title>u_10:o_0&#45;&gt;u_11:i_2</title>
<path fill="none" stroke="black" d="M622.2,-317C622.2,-283.97 564.49,-303.8 561.33,-273.66"/>
<polygon fill="black" stroke="black" points="560.2,-271.05 562.2,-270.95 562.3,-272.95 560.3,-273.05 560.2,-271.05"/>
<polyline fill="none" stroke="black" points="561.3,-273 561.33,-273.5 "/>
</g>
<!-- u_11&#45;&gt;u_15 -->
<g id="edge16" class="edge">
<title>u_11:o_0&#45;&gt;u_15:i_0</title>
<path fill="none" stroke="black" d="M575.2,-237C575.2,-128.37 336.97,-297.8 333.24,-193.51"/>
<polygon fill="black" stroke="black" points="332.2,-191.02 334.2,-190.98 334.24,-192.98 332.24,-193.02 332.2,-191.02"/>
<polyline fill="none" stroke="black" points="333.24,-193 333.24,-193.5 "/>
</g>
<!-- u_12 -->
<g id="node14" class="node">
<title>u_12</title>
<polygon fill="none" stroke="blue" points="619.2,-246 619.2,-270 641.2,-270 641.2,-246 619.2,-246"/>
<text text-anchor="start" x="622.2" y="-254.2" font-family="Helvetica,sans-Serif" font-size="16.00">In</text>
<polygon fill="none" stroke="blue" points="643.2,-246 643.2,-270 695.2,-270 695.2,-246 643.2,-246"/>
<text text-anchor="start" x="646.2" y="-254.2" font-family="Helvetica,sans-Serif" font-size="16.00">bus:1</text>
<polygon fill="none" stroke="blue" points="643.2,-238 643.2,-244 695.2,-244 695.2,-238 643.2,-238"/>
</g>
<!-- u_12&#45;&gt;u_15 -->
<g id="edge18" class="edge">
<title>u_12:o_0&#45;&gt;u_15:i_3</title>
<path fill="none" stroke="blue" d="M669.2,-237C669.2,-217.51 669.2,-211.96 669.2,-193.78"/>
<polygon fill="blue" stroke="blue" points="668.2,-191 670.2,-191 670.2,-193 668.2,-193 668.2,-191"/>
<polyline fill="none" stroke="blue" points="669.2,-193 669.2,-193.5 "/>
</g>
<!-- u_13 -->
<g id="node15" class="node">
<title>u_13</title>
<polygon fill="none" stroke="blue" points="782.2,-326 782.2,-350 804.2,-350 804.2,-326 782.2,-326"/>
<text text-anchor="start" x="785.2" y="-334.2" font-family="Helvetica,sans-Serif" font-size="16.00">In</text>
<polygon fill="none" stroke="blue" points="806.2,-326 806.2,-350 858.2,-350 858.2,-326 806.2,-326"/>
<text text-anchor="start" x="809.2" y="-334.2" font-family="Helvetica,sans-Serif" font-size="16.00">bus:0</text>
<polygon fill="none" stroke="blue" points="806.2,-318 806.2,-324 858.2,-324 858.2,-318 806.2,-318"/>
</g>
<!-- u_14 -->
<g id="node16" class="node">
<title>u_14</title>
<polygon fill="none" stroke="blue" points="733.2,-246 733.2,-270 748.2,-270 748.2,-246 733.2,-246"/>
<text text-anchor="start" x="736.2" y="-254.2" font-family="Helvetica,sans-Serif" font-size="16.00">*</text>
<polygon fill="none" stroke="blue" points="750.2,-246 750.2,-270 819.2,-270 819.2,-246 750.2,-246"/>
<text text-anchor="start" x="753.2" y="-254.2" font-family="Helvetica,sans-Serif" font-size="16.00">a:0.075</text>
<polygon fill="none" stroke="blue" points="821.2,-246 821.2,-270 843.2,-270 843.2,-246 821.2,-246"/>
<text text-anchor="start" x="824.2" y="-254.2" font-family="Helvetica,sans-Serif" font-size="16.00">b:</text>
<polygon fill="none" stroke="blue" points="821.2,-238 821.2,-244 843.2,-244 843.2,-238 821.2,-238"/>
</g>
<!-- u_13&#45;&gt;u_14 -->
<g id="edge15" class="edge">
<title>u_13:o_0&#45;&gt;u_14:i_1</title>
<path fill="none" stroke="blue" d="M832.2,-317C832.2,-297.51 832.2,-291.96 832.2,-273.78"/>
<polygon fill="blue" stroke="blue" points="831.2,-271 833.2,-271 833.2,-273 831.2,-273 831.2,-271"/>
<polyline fill="none" stroke="blue" points="832.2,-273 832.2,-273.5 "/>
</g>
<!-- u_14&#45;&gt;u_15 -->
<g id="edge19" class="edge">
<title>u_14:o_0&#45;&gt;u_15:i_4</title>
<path fill="none" stroke="blue" d="M832.2,-237C832.2,-214.43 808.19,-214.45 806.32,-193.64"/>
<polygon fill="blue" stroke="blue" points="805.2,-191.04 807.2,-190.96 807.29,-192.95 805.29,-193.04 805.2,-191.04"/>
<polyline fill="none" stroke="blue" points="806.29,-193 806.31,-193.5 "/>
</g>
<!-- u_15&#45;&gt;u_16 -->
<g id="edge20" class="edge">
<title>u_15:o_0&#45;&gt;u_16:i_0</title>
<path fill="none" stroke="black" d="M806.2,-157C806.2,-137.51 806.2,-131.96 806.2,-113.78"/>
<polygon fill="black" stroke="black" points="805.2,-111 807.2,-111 807.2,-113 805.2,-113 805.2,-111"/>
<polyline fill="none" stroke="black" points="806.2,-113 806.2,-113.5 "/>
</g>
<!-- u_16&#45;&gt;u_17 -->
<g id="edge23" class="edge">
<title>u_16:o_0&#45;&gt;u_17:i_1</title>
<path fill="none" stroke="black" d="M830.2,-77C830.2,-24 654.66,-18.17 597.82,-18"/>
<polygon fill="black" stroke="black" points="595.2,-19 595.2,-17 597.2,-17 597.2,-19 595.2,-19"/>
<polyline fill="none" stroke="black" points="597.2,-18 597.7,-18 "/>
</g>
</g>
</svg>
