<?xml version="1.0" encoding="UTF-8" standalone="no"?>
<!DOCTYPE svg PUBLIC "-//W3C//DTD SVG 1.1//EN"
 "http://www.w3.org/Graphics/SVG/1.1/DTD/svg11.dtd">
<!-- Generated by graphviz version 2.43.0 (0)
 -->
<!-- Title: soundIn Pages: 1 -->
<svg width="258pt" height="204pt"
 viewBox="0.00 0.00 258.00 204.00" xmlns="http://www.w3.org/2000/svg" xmlns:xlink="http://www.w3.org/1999/xlink">
<g id="graph0" class="graph" transform="scale(1 1) rotate(0) translate(4 200)">
<title>soundIn</title>
<polygon fill="white" stroke="transparent" points="-4,4 -4,-200 254,-200 254,4 -4,4"/>
<!-- u_0 -->
<g id="node1" class="node">
<title>u_0</title>
<polygon fill="none" stroke="yellow" points="91.5,-166 91.5,-190 240.5,-190 240.5,-166 91.5,-166"/>
<text text-anchor="start" x="94.5" y="-174.2" font-family="Helvetica,sans-Serif" font-size="16.00">NumOutputBuses</text>
<polygon fill="none" stroke="yellow" points="91.5,-158 91.5,-164 240.5,-164 240.5,-158 91.5,-158"/>
</g>
<!-- u_1 -->
<g id="node2" class="node">
<title>u_1</title>
<polygon fill="none" stroke="black" points="121.5,-86 121.5,-110 143.5,-110 143.5,-86 121.5,-86"/>
<text text-anchor="start" x="124.5" y="-94.2" font-family="Helvetica,sans-Serif" font-size="16.00">In</text>
<polygon fill="none" stroke="black" points="145.5,-86 145.5,-110 186.5,-110 186.5,-86 145.5,-86"/>
<text text-anchor="start" x="148.5" y="-94.2" font-family="Helvetica,sans-Serif" font-size="16.00">bus:</text>
<polygon fill="none" stroke="black" points="145.5,-78 145.5,-84 186.5,-84 186.5,-78 145.5,-78"/>
</g>
<!-- u_0&#45;&gt;u_1 -->
<g id="edge1" class="edge">
<title>u_0:o_0&#45;&gt;u_1:i_0</title>
<path fill="none" stroke="yellow" d="M166.5,-157C166.5,-137.51 166.5,-131.96 166.5,-113.78"/>
<polygon fill="yellow" stroke="yellow" points="165.5,-111 167.5,-111 167.5,-113 165.5,-113 165.5,-111"/>
<polyline fill="none" stroke="yellow" points="166.5,-113 166.5,-113.5 "/>
</g>
<!-- u_2 -->
<g id="node3" class="node">
<title>u_2</title>
<polygon fill="none" stroke="black" points="10.5,-6 10.5,-30 46.5,-30 46.5,-6 10.5,-6"/>
<text text-anchor="start" x="13.5" y="-14.2" font-family="Helvetica,sans-Serif" font-size="16.00">Out</text>
<polygon fill="none" stroke="black" points="48.5,-6 48.5,-30 100.5,-30 100.5,-6 48.5,-6"/>
<text text-anchor="start" x="51.5" y="-14.2" font-family="Helvetica,sans-Serif" font-size="16.00">bus:4</text>
<polygon fill="none" stroke="black" points="102.5,-6 102.5,-30 229.5,-30 229.5,-6 102.5,-6"/>
<text text-anchor="start" x="105.5" y="-14.2" font-family="Helvetica,sans-Serif" font-size="16.00">channelsArray:</text>
</g>
<!-- u_1&#45;&gt;u_2 -->
<g id="edge2" class="edge">
<title>u_1:o_0&#45;&gt;u_2:i_1</title>
<path fill="none" stroke="black" d="M166.5,-77C166.5,-57.51 166.5,-51.96 166.5,-33.78"/>
<polygon fill="black" stroke="black" points="165.5,-31 167.5,-31 167.5,-33 165.5,-33 165.5,-31"/>
<polyline fill="none" stroke="black" points="166.5,-33 166.5,-33.5 "/>
</g>
</g>
</svg>
